<svg xmlns="http://www.w3.org/2000/svg" viewBox="0 0 650 920" role="img" aria-labelledby="title desc"><title id="title">水电功能点位示意图</title><desc id="desc">R6概念示意，不按比例。储藏室西北角为推荐位；保留燃气，原厨房开口设可关闭分隔。粗墙、梁柱、公卫及C/D边界保留，现场标定拆改范围。</desc><defs><marker id="arrow" markerWidth="7" markerHeight="7" refX="5" refY="3" orient="auto"><path d="M0,0 L6,3 L0,6" fill="#287361"/></marker></defs><g font-family="Microsoft YaHei, Noto Sans CJK SC, sans-serif"><rect x="240" y="35" width="360" height="200" rx="0" fill="#f0eddf" stroke="#82958c" /><rect x="240" y="35" width="100" height="140" rx="0" fill="#e5eff0" stroke="#82958c" /><rect x="85" y="235" width="155" height="135" rx="0" fill="#e0eee7" stroke="#82958c" /><rect x="240" y="235" width="60" height="170" rx="0" fill="#faf8f1" stroke="#82958c" /><rect x="85" y="370" width="155" height="35" rx="0" fill="#faf8f1" stroke="#faf8f1" /><rect x="300" y="235" width="175" height="170" rx="0" fill="#f0eddf" stroke="#82958c" /><rect x="228" y="405" width="125" height="85" rx="0" fill="#e5eff0" stroke="#82958c" /><rect x="353" y="405" width="122" height="150" rx="0" fill="#e5eff0" stroke="#82958c" /><rect x="475" y="405" width="62" height="150" rx="0" fill="#e9ece6" stroke="#82958c" /><rect x="270" y="555" width="205" height="150" rx="0" fill="#f5e7d3" stroke="#82958c" /><rect x="270" y="705" width="205" height="165" rx="0" fill="#f0eddf" stroke="#82958c" /><rect x="50" y="815" width="170" height="65" rx="0" fill="#e9ece6" stroke="#82958c" /><path d="M85 405H228V490H353V555H270V815H50V485H85Z" fill="#faf8f1" stroke="#82958c"/><rect x="50" y="495" width="77" height="98" rx="0" fill="#ece6d9" stroke="#82958c" /><rect x="266" y="566" width="8" height="129" rx="0" fill="#faf8f1" stroke="#faf8f1" /><rect x="274" y="551" width="75" height="8" rx="0" fill="#f5e7d3" stroke="#f5e7d3" /><line x1="353" y1="495" x2="353" y2="553" stroke="#427f9a" stroke-width="2" stroke-dasharray="5 4"/><line x1="355" y1="555" x2="470" y2="555" stroke="#427f9a" stroke-width="2" stroke-dasharray="5 4"/><line x1="355" y1="548" x2="367" y2="548" stroke="#427f9a" stroke-width="4" stroke-dasharray=""/><line x1="355" y1="542" x2="367" y2="542" stroke="#427f9a" stroke-width="4" stroke-dasharray=""/><line x1="461" y1="548" x2="471" y2="548" stroke="#427f9a" stroke-width="4" stroke-dasharray=""/><text x="430" y="62" font-size="19" fill="#233d36" text-anchor="middle">A 主卧套间</text><text x="290" y="92" font-size="16" fill="#233d36" text-anchor="middle">原主卫</text><text x="387" y="264" font-size="19" fill="#233d36" text-anchor="middle">B 次卧</text><text x="164" y="329" font-size="17" fill="#233d36" text-anchor="middle">完整书房</text><text x="164" y="351" font-size="12" fill="#233d36" text-anchor="middle">先保通道</text><text x="271" y="293" font-size="13" fill="#233d36" text-anchor="middle">卧室</text><text x="271" y="316" font-size="13" fill="#233d36" text-anchor="middle">通道</text><text x="289" y="430" font-size="16" fill="#233d36" text-anchor="middle">原公卫</text><text x="413" y="428" font-size="16" fill="#233d36" text-anchor="middle">燃气中厨</text><text x="506" y="425" font-size="13" fill="#233d36" text-anchor="middle">家政间</text><text x="506" y="442" font-size="11" fill="#233d36" text-anchor="middle">阳台B</text><text x="442" y="579" font-size="13" fill="#233d36" text-anchor="middle">C餐区</text><text x="375" y="730" font-size="18" fill="#233d36" text-anchor="middle">D 次卧</text><text x="185" y="533" font-size="18" fill="#233d36" text-anchor="middle">客厅</text><text x="89" y="539" font-size="13" fill="#233d36" text-anchor="middle">储藏室</text><text x="89" y="561" font-size="11" fill="#ac6537" text-anchor="middle">推荐位</text><text x="130" y="855" font-size="16" fill="#233d36" text-anchor="middle">阳台A · 休闲</text><text x="72" y="462" font-size="15" fill="#233d36" text-anchor="middle">入户 →</text><line x1="502" y1="235" x2="580" y2="235" stroke="#427f9a" stroke-width="5" stroke-dasharray=""/><rect x="475" y="278" width="27" height="79" rx="0" fill="#fffef9" stroke="#427f9a" /><line x1="502" y1="280" x2="502" y2="355" stroke="#427f9a" stroke-width="4" stroke-dasharray=""/><rect x="475" y="590" width="27" height="68" rx="0" fill="#fffef9" stroke="#427f9a" /><line x1="502" y1="592" x2="502" y2="656" stroke="#427f9a" stroke-width="4" stroke-dasharray=""/><rect x="329" y="870" width="81" height="22" rx="0" fill="#fffef9" stroke="#427f9a" /><line x1="331" y1="892" x2="408" y2="892" stroke="#427f9a" stroke-width="4" stroke-dasharray=""/><line x1="537" y1="416" x2="537" y2="545" stroke="#427f9a" stroke-width="5" stroke-dasharray=""/><line x1="482" y1="405" x2="530" y2="405" stroke="#427f9a" stroke-width="4" stroke-dasharray=""/><line x1="482" y1="555" x2="530" y2="555" stroke="#427f9a" stroke-width="4" stroke-dasharray=""/><line x1="66" y1="880" x2="202" y2="880" stroke="#427f9a" stroke-width="5" stroke-dasharray=""/><line x1="575" y1="355" x2="575" y2="300" stroke="#233d36" stroke-width="2" stroke-dasharray=""/><text x="575" y="290" font-size="13" fill="#233d36" text-anchor="middle">N / 北</text><line x1="250" y1="235" x2="286" y2="235" stroke="#fffef9" stroke-width="7" stroke-dasharray=""/><line x1="250" y1="235" x2="286" y2="235" stroke="#68736b" stroke-width="1.5" stroke-dasharray="3 4"/><line x1="340" y1="116" x2="340" y2="163" stroke="#fffef9" stroke-width="7" stroke-dasharray=""/><line x1="340" y1="116" x2="340" y2="163" stroke="#68736b" stroke-width="1.5" stroke-dasharray="3 4"/><line x1="300" y1="350" x2="300" y2="395" stroke="#fffef9" stroke-width="7" stroke-dasharray=""/><line x1="300" y1="350" x2="300" y2="395" stroke="#68736b" stroke-width="1.5" stroke-dasharray="3 4"/><line x1="245" y1="490" x2="285" y2="490" stroke="#fffef9" stroke-width="7" stroke-dasharray=""/><line x1="245" y1="490" x2="285" y2="490" stroke="#68736b" stroke-width="1.5" stroke-dasharray="3 4"/><line x1="475" y1="512" x2="475" y2="550" stroke="#fffef9" stroke-width="7" stroke-dasharray=""/><line x1="475" y1="512" x2="475" y2="550" stroke="#68736b" stroke-width="1.5" stroke-dasharray="3 4"/><line x1="270" y1="712" x2="270" y2="752" stroke="#fffef9" stroke-width="7" stroke-dasharray=""/><line x1="270" y1="712" x2="270" y2="752" stroke="#68736b" stroke-width="1.5" stroke-dasharray="3 4"/><line x1="127" y1="545" x2="127" y2="582" stroke="#fffef9" stroke-width="7" stroke-dasharray=""/><line x1="127" y1="545" x2="127" y2="582" stroke="#427f9a" stroke-width="2" stroke-dasharray="4 3"/><line x1="240" y1="326" x2="240" y2="365" stroke="#fffef9" stroke-width="7" stroke-dasharray=""/><line x1="240" y1="326" x2="240" y2="365" stroke="#427f9a" stroke-width="2" stroke-dasharray="4 3"/><rect x="385" y="436" width="50" height="22" rx="5" fill="#427f9a" stroke="#427f9a" /><text x="410" y="452" font-size="13" fill="#fff" text-anchor="middle">K01</text><rect x="419" y="498" width="50" height="22" rx="5" fill="#ac6537" stroke="#ac6537" /><text x="444" y="514" font-size="13" fill="#fff" text-anchor="middle">K02</text><rect x="410" y="468" width="50" height="22" rx="5" fill="#427f9a" stroke="#427f9a" /><text x="435" y="484" font-size="13" fill="#fff" text-anchor="middle">K03</text><rect x="385" y="529" width="50" height="22" rx="5" fill="#ac6537" stroke="#ac6537" /><text x="410" y="545" font-size="13" fill="#fff" text-anchor="middle">K04</text><rect x="478" y="454" width="50" height="22" rx="5" fill="#427f9a" stroke="#427f9a" /><text x="503" y="470" font-size="13" fill="#fff" text-anchor="middle">L01</text><rect x="478" y="519" width="50" height="22" rx="5" fill="#ac6537" stroke="#ac6537" /><text x="503" y="535" font-size="13" fill="#fff" text-anchor="middle">L02</text><rect x="294" y="453" width="50" height="22" rx="5" fill="#ac6537" stroke="#ac6537" /><text x="319" y="469" font-size="13" fill="#fff" text-anchor="middle">R01</text><rect x="351" y="472" width="50" height="22" rx="5" fill="#427f9a" stroke="#427f9a" /><text x="376" y="488" font-size="13" fill="#fff" text-anchor="middle">C01</text><rect x="345" y="620" width="50" height="22" rx="5" fill="#427f9a" stroke="#427f9a" /><text x="370" y="636" font-size="13" fill="#fff" text-anchor="middle">C02</text><rect x="386" y="682" width="50" height="22" rx="5" fill="#427f9a" stroke="#427f9a" /><text x="411" y="698" font-size="13" fill="#fff" text-anchor="middle">C03</text><rect x="161" y="246" width="50" height="22" rx="5" fill="#427f9a" stroke="#427f9a" /><text x="186" y="262" font-size="13" fill="#fff" text-anchor="middle">S01</text><rect x="151" y="283" width="50" height="22" rx="5" fill="#427f9a" stroke="#427f9a" /><text x="176" y="299" font-size="13" fill="#fff" text-anchor="middle">S02</text><rect x="144" y="465" width="50" height="22" rx="5" fill="#427f9a" stroke="#427f9a" /><text x="169" y="481" font-size="13" fill="#fff" text-anchor="middle">H01</text><rect x="267" y="619" width="50" height="22" rx="5" fill="#427f9a" stroke="#427f9a" /><text x="292" y="635" font-size="13" fill="#fff" text-anchor="middle">H02</text><rect x="385" y="655" width="50" height="22" rx="5" fill="#427f9a" stroke="#427f9a" /><text x="410" y="671" font-size="13" fill="#fff" text-anchor="middle">H03</text><rect x="45" y="699" width="50" height="22" rx="5" fill="#427f9a" stroke="#427f9a" /><text x="70" y="715" font-size="13" fill="#fff" text-anchor="middle">H04</text><rect x="64" y="508" width="50" height="22" rx="5" fill="#427f9a" stroke="#427f9a" /><text x="89" y="524" font-size="13" fill="#fff" text-anchor="middle">T01</text><text x="430" y="174" font-size="15" fill="#233d36" text-anchor="middle">现有空调核查保留</text><text x="387" y="330" font-size="13" fill="#233d36" text-anchor="middle">空调与插座复核</text><text x="374" y="795" font-size="13" fill="#233d36" text-anchor="middle">空调与插座复核</text><text x="160" y="603" font-size="12" fill="#ac6537" text-anchor="middle">L02 / R01 二选一</text><text x="416" y="594" font-size="11" fill="#233d36" text-anchor="middle">岛台无水无火</text><text x="325" y="908" font-size="11" fill="#ac6537" text-anchor="middle">非比例图 · 保留燃气及可关闭边界 · 储藏为推荐位 · 机器人不另占公共区</text></g></svg>