<svg xmlns="http://www.w3.org/2000/svg" viewBox="0 0 650 920" role="img" aria-label="R9 空调 · 上北下南"><title>R9 空调 · 上北下南</title><g font-family="Microsoft YaHei, sans-serif"><text x="325.0" y="28" font-size="22" fill="#233d36" text-anchor="middle">R9 空调 · 上北下南</text><rect x="240" y="35" width="360" height="200" rx="0" fill="#f0eddf" stroke="none" /><rect x="240" y="35" width="100" height="140" rx="0" fill="#e5eff0" stroke="none" /><rect x="85" y="235" width="215" height="170" rx="0" fill="#e0eee7" stroke="none" /><rect x="300" y="235" width="175" height="170" rx="0" fill="#f0eddf" stroke="none" /><rect x="228" y="405" width="125" height="93" rx="0" fill="#e5eff0" stroke="none" /><rect x="475" y="405" width="62" height="150" rx="0" fill="#e9ece6" stroke="none" /><rect x="270" y="710" width="205" height="160" rx="0" fill="#f0eddf" stroke="none" /><rect x="50" y="815" width="170" height="65" rx="0" fill="#e9ece6" stroke="none" /><path d="M85 405H228V498H353V555H270V815H50V485H85Z" fill="#faf8f1" stroke="none"/><line x1="240" y1="35" x2="600" y2="35" stroke="#233d36" stroke-width="4" stroke-dasharray=""/><line x1="240" y1="35" x2="240" y2="235" stroke="#233d36" stroke-width="4" stroke-dasharray=""/><line x1="600" y1="35" x2="600" y2="235" stroke="#233d36" stroke-width="4" stroke-dasharray=""/><line x1="240" y1="235" x2="250" y2="235" stroke="#233d36" stroke-width="4" stroke-dasharray=""/><line x1="286" y1="235" x2="502" y2="235" stroke="#233d36" stroke-width="4" stroke-dasharray=""/><line x1="580" y1="235" x2="600" y2="235" stroke="#233d36" stroke-width="4" stroke-dasharray=""/><line x1="340" y1="35" x2="340" y2="116" stroke="#233d36" stroke-width="4" stroke-dasharray=""/><line x1="340" y1="163" x2="340" y2="175" stroke="#233d36" stroke-width="4" stroke-dasharray=""/><line x1="240" y1="175" x2="340" y2="175" stroke="#233d36" stroke-width="4" stroke-dasharray=""/><line x1="85" y1="235" x2="240" y2="235" stroke="#233d36" stroke-width="4" stroke-dasharray=""/><line x1="85" y1="235" x2="85" y2="435" stroke="#233d36" stroke-width="4" stroke-dasharray=""/><line x1="85" y1="475" x2="85" y2="485" stroke="#233d36" stroke-width="4" stroke-dasharray=""/><line x1="50" y1="485" x2="85" y2="485" stroke="#233d36" stroke-width="4" stroke-dasharray=""/><line x1="50" y1="485" x2="50" y2="880" stroke="#233d36" stroke-width="4" stroke-dasharray=""/><line x1="300" y1="235" x2="300" y2="350" stroke="#233d36" stroke-width="4" stroke-dasharray=""/><line x1="300" y1="395" x2="300" y2="405" stroke="#233d36" stroke-width="4" stroke-dasharray=""/><line x1="475" y1="235" x2="475" y2="405" stroke="#233d36" stroke-width="4" stroke-dasharray=""/><line x1="228" y1="405" x2="475" y2="405" stroke="#233d36" stroke-width="4" stroke-dasharray=""/><line x1="228" y1="405" x2="228" y2="498" stroke="#233d36" stroke-width="4" stroke-dasharray=""/><line x1="537" y1="405" x2="537" y2="416" stroke="#233d36" stroke-width="4" stroke-dasharray=""/><line x1="537" y1="545" x2="537" y2="555" stroke="#233d36" stroke-width="4" stroke-dasharray=""/><line x1="270" y1="710" x2="270" y2="715" stroke="#233d36" stroke-width="4" stroke-dasharray=""/><line x1="270" y1="752" x2="270" y2="870" stroke="#233d36" stroke-width="4" stroke-dasharray=""/><line x1="270" y1="870" x2="329" y2="870" stroke="#233d36" stroke-width="4" stroke-dasharray=""/><line x1="410" y1="870" x2="475" y2="870" stroke="#233d36" stroke-width="4" stroke-dasharray=""/><line x1="475" y1="710" x2="475" y2="870" stroke="#233d36" stroke-width="4" stroke-dasharray=""/><line x1="50" y1="815" x2="80" y2="815" stroke="#233d36" stroke-width="4" stroke-dasharray=""/><line x1="200" y1="815" x2="270" y2="815" stroke="#233d36" stroke-width="4" stroke-dasharray=""/><line x1="50" y1="880" x2="66" y2="880" stroke="#233d36" stroke-width="4" stroke-dasharray=""/><line x1="202" y1="880" x2="220" y2="880" stroke="#233d36" stroke-width="4" stroke-dasharray=""/><line x1="502" y1="235" x2="580" y2="235" stroke="#427f9a" stroke-width="3" stroke-dasharray=""/><line x1="475" y1="280" x2="475" y2="355" stroke="#427f9a" stroke-width="3" stroke-dasharray=""/><line x1="475" y1="592" x2="475" y2="656" stroke="#427f9a" stroke-width="3" stroke-dasharray=""/><line x1="329" y1="870" x2="410" y2="870" stroke="#427f9a" stroke-width="3" stroke-dasharray=""/><line x1="537" y1="416" x2="537" y2="545" stroke="#427f9a" stroke-width="3" stroke-dasharray=""/><line x1="66" y1="880" x2="202" y2="880" stroke="#427f9a" stroke-width="3" stroke-dasharray=""/><rect x="418" y="93" width="112" height="123" rx="6" fill="#fff" stroke="#acb8ad" /><rect x="422" y="97" width="104" height="23" rx="3" fill="#e9e8dc" stroke="#acb8ad" /><line x1="418" y1="131" x2="530" y2="131" stroke="#acb8ad" stroke-width="2" stroke-dasharray=""/><rect x="556" y="75" width="28" height="90" rx="0" fill="#d8decf" stroke="#82958c" /><rect x="360" y="310" width="83" height="79" rx="6" fill="#fff" stroke="#acb8ad" /><rect x="364" y="314" width="75" height="23" rx="3" fill="#e9e8dc" stroke="#acb8ad" /><line x1="360" y1="348" x2="443" y2="348" stroke="#acb8ad" stroke-width="2" stroke-dasharray=""/><rect x="311" y="275" width="140" height="22" rx="0" fill="#d8decf" stroke="#82958c" /><rect x="331" y="759" width="103" height="96" rx="6" fill="#fff" stroke="#acb8ad" /><rect x="335" y="763" width="95" height="23" rx="3" fill="#e9e8dc" stroke="#acb8ad" /><line x1="331" y1="797" x2="434" y2="797" stroke="#acb8ad" stroke-width="2" stroke-dasharray=""/><rect x="444" y="741" width="25" height="112" rx="0" fill="#d8decf" stroke="#82958c" /><rect x="93.0" y="245.0" width="33.5075" height="103.1" rx="0" fill="#d8decf" stroke="#287361" /><rect x="149.70499999999998" y="245.0" width="92.78999999999999" height="36.085" rx="0" fill="#d8decf" stroke="#287361" /><rect x="149.70499999999998" y="245.0" width="92.78999999999999" height="14.434" rx="0" fill="none" stroke="#287361" stroke-dasharray="4 3"/><rect x="180.635" y="291.395" width="30.93" height="41.24" rx="0" fill="#d8decf" stroke="#287361" /><rect x="126.5075" y="245.0" width="30.93" height="103.1" rx="0" fill="none" stroke="#ac6537" stroke-dasharray="4 3"/><rect x="93.0" y="417.6925" width="56.705" height="18.0425" rx="0" fill="#d8decf" stroke="#287361" /><rect x="93.0" y="435.735" width="56.705" height="18.0425" rx="0" fill="none" stroke="#ac6537" stroke-dasharray="4 3"/><polyline points="185.79,446.04499999999996 185.79,394.495 273.42499999999995,394.495 273.42499999999995,255.31" fill="none" stroke="#287361" stroke-width="2" stroke-dasharray="5 4"/><rect x="270.0" y="555.0" width="204.9628" height="154.5469" fill="#f7efdf" stroke="none" stroke-dasharray=""/><rect x="352.48" y="408.3918" width="122.4828" height="146.60819999999998" fill="#e8eff0" stroke="none" stroke-dasharray=""/><g data-wall="bath_south_west" data-retained="true"><polyline points="228.76,497.7795 244.225,497.7795" fill="none" stroke="#233d36" stroke-width="4" stroke-dasharray=""/></g><g data-wall="bath_south_east" data-retained="true"><polyline points="280.31,497.7795 352.48,497.7795" fill="none" stroke="#233d36" stroke-width="4" stroke-dasharray=""/></g><g data-wall="bath_east" data-retained="true"><polyline points="352.48,408.3918 352.48,497.7795" fill="none" stroke="#233d36" stroke-width="4" stroke-dasharray=""/></g><g data-wall="kitchen_north" data-retained="true"><polyline points="352.48,408.3918 474.9628,408.3918" fill="none" stroke="#233d36" stroke-width="4" stroke-dasharray=""/></g><g data-wall="balcony_divider_north" data-retained="true"><polyline points="474.9628,408.3918 474.9628,475.09749999999997" fill="none" stroke="#233d36" stroke-width="4" stroke-dasharray=""/></g><g data-wall="balcony_divider_south" data-retained="true"><polyline points="474.9628,521.4925 474.9628,555.0" fill="none" stroke="#233d36" stroke-width="4" stroke-dasharray=""/></g><g data-wall="dining_north_end" data-retained="true"><polyline points="270.0,555.0 279.279,555.0" fill="none" stroke="#233d36" stroke-width="4" stroke-dasharray=""/></g><g data-wall="dining_east" data-retained="true"><polyline points="474.9628,555.0 474.9628,709.5469" fill="none" stroke="#233d36" stroke-width="4" stroke-dasharray=""/></g><g data-wall="cd" data-retained="true"><polyline points="270.0,709.5469 474.9628,709.5469" fill="none" stroke="#233d36" stroke-width="4" stroke-dasharray=""/></g><g data-wall="dining_west_south_end" data-retained="true"><polyline points="270.0,700.2679 270.0,709.5469" fill="none" stroke="#233d36" stroke-width="4" stroke-dasharray=""/></g><g data-object="sink"><rect x="434.96000000000004" y="408.3918" width="40.0028" height="30.93" fill="#d8decf" stroke="#233d36" stroke-dasharray=""/></g><g data-object="prep"><rect x="393.72" y="408.3918" width="41.24" height="30.93" fill="#d8decf" stroke="#233d36" stroke-dasharray=""/></g><g data-object="hob"><rect x="352.48" y="408.3918" width="41.24" height="30.93" fill="#d8decf" stroke="#233d36" stroke-dasharray=""/></g><g data-object="island"><rect x="352.48" y="475.4068" width="51.55" height="38.6625" fill="#d8decf" stroke="#233d36" stroke-dasharray=""/></g><g data-object="table4"><rect x="346.0878" y="514.0693" width="41.24" height="82.48" fill="#d8decf" stroke="#233d36" stroke-dasharray=""/></g><g data-object="fridge"><rect x="275.155" y="670.8844" width="50.26125" height="38.6625" fill="#d8decf" stroke="#233d36" stroke-dasharray=""/></g><g data-object="tower"><rect x="325.41625" y="678.6169" width="30.93" height="30.93" fill="#d8decf" stroke="#233d36" stroke-dasharray=""/></g><g data-object="coffee"><rect x="356.34625" y="678.6169" width="67.015" height="30.93" fill="#d8decf" stroke="#233d36" stroke-dasharray=""/></g><g data-object="pantry"><rect x="423.36125" y="678.6169" width="46.44655" height="30.93" fill="#d8decf" stroke="#233d36" stroke-dasharray=""/></g><rect x="304.8478" y="521.8018" width="41.24" height="25.775" fill="none" stroke="#ac6537" stroke-dasharray="3 3"/><rect x="304.8478" y="563.0418" width="41.24" height="25.775" fill="none" stroke="#ac6537" stroke-dasharray="3 3"/><rect x="387.3278" y="521.8018" width="41.24" height="25.775" fill="none" stroke="#ac6537" stroke-dasharray="3 3"/><rect x="387.3278" y="563.0418" width="41.24" height="25.775" fill="none" stroke="#ac6537" stroke-dasharray="3 3"/><rect x="322.8903" y="521.8018" width="23.197499999999998" height="25.775" fill="#fff" stroke="#ac936d" stroke-dasharray=""/><rect x="322.8903" y="563.0418" width="23.197499999999998" height="25.775" fill="#fff" stroke="#ac936d" stroke-dasharray=""/><rect x="387.3278" y="521.8018" width="23.197499999999998" height="25.775" fill="#fff" stroke="#ac936d" stroke-dasharray=""/><rect x="387.3278" y="563.0418" width="23.197499999999998" height="25.775" fill="#fff" stroke="#ac936d" stroke-dasharray=""/><rect x="489" y="450" width="34" height="48" rx="0" fill="#d8decf" stroke="#82958c" /><text x="506" y="475" font-size="10" fill="#233d36" text-anchor="middle">洗烘</text><rect x="489" y="518" width="32" height="25" rx="0" fill="#d9e6e2" stroke="#82958c" /><text x="505" y="534" font-size="10" fill="#233d36" text-anchor="middle">L02</text><rect x="309" y="455" width="31" height="24" rx="0" fill="none" stroke="#ac6537" stroke-dasharray="4 3"/><text x="324" y="471" font-size="10" fill="#233d36" text-anchor="middle">R01</text><rect x="55" y="638" width="45" height="144" rx="10" fill="#d5ddd5" stroke="#82958c" /><text x="77" y="664" font-size="12" fill="#233d36" text-anchor="middle">沙发</text><line x1="220" y1="650" x2="220" y2="770" stroke="#427f9a" stroke-width="4" stroke-dasharray=""/><text x="185" y="789" font-size="11" fill="#233d36" text-anchor="middle">收纳幕</text><rect x="63" y="699" width="25" height="20" rx="0" fill="#fff" stroke="#427f9a" /><text x="75" y="714" font-size="10" fill="#233d36" text-anchor="middle">PJ</text><line x1="88" y1="710" x2="220" y2="650" stroke="#427f9a" stroke-width="1" stroke-dasharray="5 4"/><line x1="88" y1="710" x2="220" y2="770" stroke="#427f9a" stroke-width="1" stroke-dasharray="5 4"/><text x="430" y="62" font-size="14" fill="#233d36" text-anchor="middle">A 主卧</text><text x="288" y="92" font-size="14" fill="#233d36" text-anchor="middle">原主卫</text><text x="386" y="264" font-size="14" fill="#233d36" text-anchor="middle">B 次卧</text><text x="183" y="362" font-size="14" fill="#233d36" text-anchor="middle">家庭厅</text><text x="289" y="428" font-size="14" fill="#233d36" text-anchor="middle">原公卫</text><text x="506" y="438" font-size="14" fill="#233d36" text-anchor="middle">阳台B</text><text x="377" y="733" font-size="14" fill="#233d36" text-anchor="middle">D 次卧</text><text x="153" y="595" font-size="14" fill="#233d36" text-anchor="middle">客厅</text><text x="130" y="855" font-size="14" fill="#233d36" text-anchor="middle">阳台A</text><text x="40" y="460" font-size="11" fill="#233d36" text-anchor="middle">入户→</text><text x="570" y="325" font-size="16" fill="#233d36" text-anchor="middle">北 ↑</text><text x="365" y="618" font-size="11" fill="#233d36" text-anchor="middle">餐区</text><rect x="125" y="520" width="90" height="18" rx="0" fill="#bad4df" stroke="#427f9a" /><text x="170.0" y="514" font-size="10" fill="#427f9a" text-anchor="middle">AC01</text><rect x="584" y="175" width="10" height="40" rx="0" fill="#bad4df" stroke="#427f9a" /><text x="580" y="169" font-size="10" fill="#427f9a" text-anchor="end">AC02</text><rect x="460" y="360" width="10" height="32" rx="0" fill="#bad4df" stroke="#427f9a" /><text x="456" y="354" font-size="10" fill="#427f9a" text-anchor="end">AC03</text><rect x="278" y="816" width="10" height="32" rx="0" fill="#bad4df" stroke="#427f9a" /><text x="274" y="810" font-size="10" fill="#427f9a" text-anchor="end">AC04</text><rect x="243" y="247" width="40" height="10" rx="0" fill="#bad4df" stroke="#427f9a" /><text x="263.0" y="241" font-size="10" fill="#427f9a" text-anchor="middle">AC05</text><polyline points="170,520 105,500 40,500" fill="none" stroke="#ac6537" stroke-width="2" stroke-dasharray="6 3"/><polyline points="175,538 105,538 105,815 48,845" fill="none" stroke="#427f9a" stroke-width="2" stroke-dasharray="2 3"/><text x="40" y="500" font-size="9" fill="#ac6537" text-anchor="middle">O1候选</text><text x="48" y="845" font-size="9" fill="#427f9a" text-anchor="middle">D1</text><polyline points="590,178 615,178 615,215" fill="none" stroke="#ac6537" stroke-width="2" stroke-dasharray="6 3"/><polyline points="590,210 590,55 350,55 350,140 330,140" fill="none" stroke="#427f9a" stroke-width="2" stroke-dasharray="2 3"/><text x="615" y="215" font-size="9" fill="#ac6537" text-anchor="middle">O2候选</text><text x="330" y="140" font-size="9" fill="#427f9a" text-anchor="middle">D2</text><polyline points="465,365 515,365 545,375" fill="none" stroke="#ac6537" stroke-width="2" stroke-dasharray="6 3"/><polyline points="468,382 520,382 520,405" fill="none" stroke="#427f9a" stroke-width="2" stroke-dasharray="2 3"/><text x="545" y="375" font-size="9" fill="#ac6537" text-anchor="middle">O3候选</text><text x="520" y="405" font-size="9" fill="#427f9a" text-anchor="middle">D3</text><polyline points="283,816 285,890 450,890" fill="none" stroke="#ac6537" stroke-width="2" stroke-dasharray="6 3"/><polyline points="284,844 290,875 230,875" fill="none" stroke="#427f9a" stroke-width="2" stroke-dasharray="2 3"/><text x="450" y="890" font-size="9" fill="#ac6537" text-anchor="middle">O4候选</text><text x="230" y="875" font-size="9" fill="#427f9a" text-anchor="middle">D4</text><polyline points="263,247 263,225 200,225" fill="none" stroke="#ac6537" stroke-width="2" stroke-dasharray="6 3"/><polyline points="267,257 290,257 290,400 275,400" fill="none" stroke="#427f9a" stroke-width="2" stroke-dasharray="2 3"/><text x="200" y="225" font-size="9" fill="#ac6537" text-anchor="middle">O5候选</text><text x="275" y="400" font-size="9" fill="#427f9a" text-anchor="middle">D5</text><line x1="145" y1="541" x2="145" y2="583" stroke="#287361" stroke-width="3" stroke-dasharray=""/><text x="185" y="575" font-size="10" fill="#287361" text-anchor="middle">送风↓</text><rect x="128" y="500" width="44" height="8" rx="0" fill="none" stroke="#287361" /><text x="151" y="491" font-size="10" fill="#287361" text-anchor="middle">回风</text><rect x="182" y="545" width="31" height="22" rx="0" fill="none" stroke="#ac6537" stroke-dasharray="3 2"/><text x="217" y="574" font-size="10" fill="#ac6537" text-anchor="middle">检修</text><line x1="580" y1="208" x2="545" y2="221" stroke="#287361" stroke-width="2" stroke-dasharray=""/><line x1="455" y1="386" x2="428" y2="399" stroke="#287361" stroke-width="2" stroke-dasharray=""/><line x1="294" y1="841" x2="320" y2="856" stroke="#287361" stroke-width="2" stroke-dasharray=""/><line x1="263" y1="264" x2="270" y2="295" stroke="#287361" stroke-width="2" stroke-dasharray=""/><text x="325" y="908" font-size="11" fill="#ac6537" text-anchor="middle">全屋关系示意；餐厨与局部共用坐标 · 墙厚、门窗及设备条件待实测</text></g></svg>