<svg xmlns="http://www.w3.org/2000/svg" viewBox="0 0 1400 1050" role="img"><title>儿童房 B · 功能与状态尺寸</title><rect width="100%" height="100%" fill="#fbfaf5"/><g font-family="PingFang SC, Microsoft YaHei, sans-serif"><text x="42" y="48" font-size="27" fill="#233e38" text-anchor="start">R10.4  /  儿童房 B · 功能与状态尺寸</text><text x="42" y="79" font-size="15" fill="#b36b36" text-anchor="start">单位：mm · 概念尺寸，非现场实测／下单尺寸</text><defs><clipPath id="panel_3"><rect x="50" y="120" width="900" height="650" fill="white" stroke="none" stroke-width="1.4" /></clipPath></defs><g clip-path="url(#panel_3)" data-plan="true" data-world="[440.0, 2644.0, 3736.0, 3703.0]" data-frame="[50, 120, 900, 650]" data-pulled="[]"><rect x="1256.9" y="-534.739" width="42.128" height="710.91" fill="#64736d" stroke="none" stroke-width="1.4" data-wall="wall_A_east_0" data-box="6620,6027,240,4050"/><rect x="-20.983" y="-555.803" width="1320.01" height="42.128" fill="#64736d" stroke="none" stroke-width="1.4" data-wall="wall_A_north_0" data-box="-660,9957,7520,240"/><rect x="179.125" y="134.043" width="742.506" height="21.064" fill="#64736d" stroke="none" stroke-width="1.4" data-wall="wall_A_south1_0" data-box="480,6147,4230,120"/><rect x="1186.69" y="134.043" width="70.2133" height="21.064" fill="#64736d" stroke="none" stroke-width="1.4" data-wall="wall_A_south2_0" data-box="6220,6147,400,120"/><rect x="-20.983" y="-534.739" width="42.128" height="668.782" fill="#64736d" stroke="none" stroke-width="1.4" data-wall="wall_A_west_0" data-box="-660,6267,240,3810"/><rect x="792.79" y="155.107" width="42.128" height="131.123" fill="#64736d" stroke="none" stroke-width="1.4" data-wall="wall_B_east1_0" data-box="3976,5400,240,747"/><rect x="792.79" y="558.307" width="42.128" height="176.587" fill="#64736d" stroke="none" stroke-width="1.4" data-wall="wall_B_east2_0" data-box="3976,2844,240,1006"/><rect x="186.146" y="155.107" width="21.064" height="356.333" fill="#64736d" stroke="none" stroke-width="1.4" data-wall="wall_B_west1_0" data-box="520,4117,120,2030"/><rect x="186.146" y="669.419" width="21.064" height="65.4739" fill="#64736d" stroke="none" stroke-width="1.4" data-wall="wall_B_west2_0" data-box="520,2844,120,373"/><rect x="73.805" y="1760.36" width="761.113" height="21.064" fill="#64736d" stroke="none" stroke-width="1.4" data-wall="wall_CD_0" data-box="-120,-3118,4336,120"/><rect x="792.79" y="1234.11" width="42.128" height="96.5433" fill="#64736d" stroke="none" stroke-width="1.4" data-wall="wall_C_east1_0" data-box="3976,-550,240,550"/><rect x="792.79" y="1620.28" width="42.128" height="140.076" fill="#64736d" stroke="none" stroke-width="1.4" data-wall="wall_C_east2_0" data-box="3976,-2998,240,798"/><rect x="73.805" y="1728.76" width="21.064" height="52.66" fill="#64736d" stroke="none" stroke-width="1.4" data-wall="wall_C_west_end_0" data-box="-120,-3118,120,300"/><rect x="792.79" y="1781.42" width="42.128" height="572.941" fill="#64736d" stroke="none" stroke-width="1.4" data-wall="wall_D_east_0" data-box="3976,-6382,240,3264"/><rect x="94.869" y="2333.3" width="196.597" height="21.064" fill="#64736d" stroke="none" stroke-width="1.4" data-wall="wall_D_south1_0" data-box="0,-6382,1120,120"/><rect x="579.341" y="2333.3" width="213.449" height="21.064" fill="#64736d" stroke="none" stroke-width="1.4" data-wall="wall_D_south2_0" data-box="2760,-6382,1216,120"/><rect x="73.805" y="1939.4" width="21.064" height="414.961" fill="#64736d" stroke="none" stroke-width="1.4" data-wall="wall_D_west2_0" data-box="-120,-6382,120,2364"/><rect x="-109.978" y="2178.48" width="21.064" height="191.331" fill="#64736d" stroke="none" stroke-width="1.4" data-wall="wall_balconyA_east_0" data-box="-1167,-6470,120,1090"/><rect x="-637.456" y="2136.35" width="105.32" height="21.064" fill="#64736d" stroke="none" stroke-width="1.4" data-wall="wall_balconyA_head1_0" data-box="-4172,-5260,600,120"/><rect x="-181.069" y="2136.35" width="254.874" height="42.128" fill="#64736d" stroke="none" stroke-width="1.4" data-wall="wall_balconyA_head2_0" data-box="-1572,-5380,1452,240"/><rect x="988.86" y="734.893" width="21.064" height="31.596" fill="#64736d" stroke="none" stroke-width="1.4" data-wall="wall_balconyB_NE_0" data-box="5093,2664,120,180"/><rect x="988.86" y="1213.05" width="21.064" height="42.128" fill="#64736d" stroke="none" stroke-width="1.4" data-wall="wall_balconyB_SE_0" data-box="5093,-120,120,240"/><rect x="792.79" y="755.957" width="21.064" height="258.736" fill="#64736d" stroke="none" stroke-width="1.4" data-wall="wall_balconyB_div1_0" data-box="3976,1250,120,1474"/><rect x="792.79" y="1163.9" width="21.064" height="70.2133" fill="#64736d" stroke="none" stroke-width="1.4" data-wall="wall_balconyB_div2_0" data-box="3976,-0,120,400"/><rect x="375.722" y="755.957" width="21.064" height="258.736" fill="#64736d" stroke="none" stroke-width="1.4" data-wall="wall_bath_east_0" data-box="1600,1250,120,1474"/><rect x="-63.111" y="734.893" width="855.901" height="21.064" fill="#64736d" stroke="none" stroke-width="1.4" data-wall="wall_bath_kitchen_north_0" data-box="-900,2724,4876,120"/><rect x="-42.047" y="993.629" width="172.023" height="21.064" fill="#64736d" stroke="none" stroke-width="1.4" data-wall="wall_bath_south1_0" data-box="-780,1250,980,120"/><rect x="270.402" y="993.629" width="105.32" height="21.064" fill="#64736d" stroke="none" stroke-width="1.4" data-wall="wall_bath_south2_0" data-box="1000,1250,600,120"/><rect x="-63.111" y="755.957" width="21.064" height="258.736" fill="#64736d" stroke="none" stroke-width="1.4" data-wall="wall_bath_west_0" data-box="-900,1250,120,1474"/><rect x="-545.828" y="910.427" width="42.128" height="104.267" fill="#64736d" stroke="none" stroke-width="1.4" data-wall="wall_entry_lower_0" data-box="-3650,1250,240,594"/><rect x="-679.584" y="993.629" width="175.884" height="42.128" fill="#64736d" stroke="none" stroke-width="1.4" data-wall="wall_entry_step_0" data-box="-4412,1130,1002,240"/><rect x="-545.828" y="112.979" width="566.973" height="42.128" fill="#64736d" stroke="none" stroke-width="1.4" data-wall="wall_family_north_0" data-box="-3650,6147,3230,240"/><rect x="-545.828" y="155.107" width="42.128" height="600.851" fill="#64736d" stroke="none" stroke-width="1.4" data-wall="wall_family_west_0" data-box="-3650,2724,240,3423"/><rect x="-679.584" y="1035.76" width="42.128" height="1334.05" fill="#64736d" stroke="none" stroke-width="1.4" data-wall="wall_living_west_0" data-box="-4412,-6470,240,7600"/><rect x="319.552" y="-534.739" width="21.064" height="115.852" fill="#64736d" stroke="none" stroke-width="1.4" data-wall="wall_master_bath_east1_0" data-box="1280,9417,120,660"/><rect x="319.552" y="-285.482" width="21.064" height="38.6173" fill="#64736d" stroke="none" stroke-width="1.4" data-wall="wall_master_bath_east2_0" data-box="1280,8437,120,220"/><rect x="21.145" y="-267.929" width="298.407" height="21.064" fill="#64736d" stroke="none" stroke-width="1.4" data-wall="wall_master_bath_south_0" data-box="-420,8437,1700,120"/><rect x="-503.7" y="734.893" width="5.266" height="21.064" fill="#64736d" stroke="none" stroke-width="1.4" data-wall="shoe_wall_west_return" data-box="-3410,2724,30,120"/><rect x="-340.454" y="734.893" width="14.0427" height="21.064" fill="#64736d" stroke="none" stroke-width="1.4" data-wall="shoe_wall_door_return" data-box="-2480,2724,80,120"/><rect x="921.631" y="134.043" width="265.055" height="21.064" fill="#dceaf0" stroke="#467896" stroke-width="1.4" /><rect x="834.918" y="734.893" width="153.943" height="21.064" fill="#dceaf0" stroke="#467896" stroke-width="1.4" /><rect x="988.86" y="766.489" width="21.064" height="446.557" fill="#dceaf0" stroke="#467896" stroke-width="1.4" /><rect x="834.918" y="1234.11" width="153.943" height="21.064" fill="#dceaf0" stroke="#467896" stroke-width="1.4" /><rect x="-637.456" y="2348.75" width="527.478" height="21.064" fill="#dceaf0" stroke="#467896" stroke-width="1.4" /><rect x="792.79" y="286.23" width="131.65" height="272.077" fill="#dceaf0" stroke="#467896" stroke-width="1.4" /><rect x="792.79" y="1330.65" width="131.65" height="289.63" fill="#dceaf0" stroke="#467896" stroke-width="1.4" /><rect x="291.466" y="2333.3" width="287.875" height="122.873" fill="#dceaf0" stroke="#467896" stroke-width="1.4" /><polygon points="470.51,523.727 681.15,523.727 681.15,172.66 470.51,172.66" fill="#e0e9df" stroke="#34735e" stroke-width="1.4" data-object="bedB" data-box="2140,4047,1200,2000"/><text x="575.83" y="348.193" font-size="14" fill="#233e38" text-anchor="middle">B床</text><rect x="491.574" y="193.724" width="73.724" height="52.66" fill="#fbfaf5" stroke="#34735e" stroke-width="1.4" /><rect x="584.256" y="193.724" width="73.724" height="52.66" fill="#fbfaf5" stroke="#34735e" stroke-width="1.4" /><polygon points="207.21,435.96 312.53,435.96 312.53,172.66 207.21,172.66" fill="#e0e9df" stroke="#34735e" stroke-width="1.4" data-object="wardrobeB" data-box="640,4547,600,1500"/><text x="259.87" y="304.31" font-size="14" fill="#233e38" text-anchor="middle">B衣柜</text><polygon points="396.786,861.277 516.149,861.277 516.149,755.957 396.786,755.957" fill="#e0e9df" stroke="#34735e" stroke-width="1.4" data-object="hob" data-box="1720,2124,680,600"/><text x="456.468" y="808.617" font-size="14" fill="#233e38" text-anchor="middle">灶台</text><polygon points="516.149,861.277 656.576,861.277 656.576,755.957 516.149,755.957" fill="#e0e9df" stroke="#34735e" stroke-width="1.4" data-object="prep" data-box="2400,2124,800,600"/><text x="586.362" y="808.617" font-size="14" fill="#233e38" text-anchor="middle">备菜柜</text><polygon points="656.576,861.277 792.79,861.277 792.79,755.957 656.576,755.957" fill="#e0e9df" stroke="#34735e" stroke-width="1.4" data-object="sink" data-box="3200,2124,776,600"/><text x="724.683" y="808.617" font-size="14" fill="#233e38" text-anchor="middle">主槽柜</text><polygon points="173.859,878.831 244.072,878.831 244.072,764.734 173.859,764.734" fill="#e0e9df" stroke="#34735e" stroke-width="1.4" data-object="Bath_Public_wc" data-box="450,2024,400,650"/><text x="208.966" y="821.782" font-size="14" fill="#233e38" text-anchor="middle">客卫马桶</text><polygon points="582.15,734.893 792.79,734.893 792.79,629.573 582.15,629.573" fill="#e7dfd2" stroke="#34735e" stroke-width="1.4" data-object="child_desk" data-box="2776,2844,1200,600"/><text x="687.47" y="682.233" font-size="14" fill="#233e38" text-anchor="middle">儿童书桌</text><polygon points="687.47,708.563 775.236,708.563 775.236,620.797 687.47,620.797" fill="#e7dfd2" stroke="#34735e" stroke-width="1.4" data-object="child_chair" data-box="3376,2994,500,500"/><text x="731.353" y="664.68" font-size="14" fill="#233e38" text-anchor="middle">儿童书椅</text><rect x="29.044" y="141.503" width="142.182" height="6.14367" fill="#cdbb9e" stroke="#b36b36" stroke-width="1.4" /><rect x="171.226" y="5.46449" width="6.14367" height="142.182" fill="none" stroke="#b36b36" stroke-width="1.4" stroke-dasharray="6 4" /><polyline points="29.044,141.503 29.5604,134.07 30.4651,126.674 31.7556,119.336 33.4284,112.076 35.4789,104.913 37.9014,97.8669 40.6894,90.9574 43.8352,84.2033 47.3301,77.6232 51.1646,71.2349 55.3282,65.0561 59.8095,59.1037 64.5962,53.3939 69.6751,47.9425 75.0324,42.7644 80.6533,37.8738 86.5225,33.284 92.6239,29.0077 98.9407,25.0566 105.456,21.4414 112.151,18.1722 119.008,15.2579 126.008,12.7065 133.132,10.5249 140.361,8.71912 147.674,7.29417 155.052,6.2539 162.474,5.60119 169.92,5.33781 177.37,5.46449" fill="none" stroke="#b36b36" stroke-dasharray="3 4"/><rect x="193.607" y="519.338" width="6.14367" height="142.182" fill="#cdbb9e" stroke="#b36b36" stroke-width="1.4" /><rect x="51.4245" y="655.377" width="142.182" height="6.14367" fill="none" stroke="#b36b36" stroke-width="1.4" stroke-dasharray="6 4" /><polyline points="199.75,519.338 192.301,519.212 184.854,519.475 177.432,520.128 170.055,521.168 162.741,522.593 155.513,524.399 148.389,526.58 141.388,529.132 134.531,532.046 127.836,535.315 121.321,538.93 115.004,542.882 108.903,547.158 103.034,551.748 97.4129,556.638 92.0556,561.816 86.9767,567.268 82.19,572.978 77.7087,578.93 73.5451,585.109 69.7106,591.497 66.2157,598.077 63.0699,604.831 60.2819,611.741 57.8594,618.787 55.8089,625.95 54.1361,633.21 52.8456,640.548 51.9409,647.944 51.4245,655.377" fill="none" stroke="#b36b36" stroke-dasharray="3 4"/></g><rect x="669.916" y="524.253" width="122.873" height="105.32" fill="none" stroke="#467896" stroke-width="1.4" stroke-dasharray="6 4" /><text x="980" y="145" font-size="16" fill="#467896" text-anchor="start">1 坐人</text><text x="980" y="166" font-size="14" fill="#233e38" text-anchor="start">700 × 600 mm</text><rect x="687.47" y="533.03" width="87.7667" height="87.7667" fill="none" stroke="#b36b36" stroke-width="1.4" stroke-dasharray="6 4" /><text x="980" y="200" font-size="16" fill="#b36b36" text-anchor="start">2 拉椅</text><text x="980" y="221" font-size="14" fill="#233e38" text-anchor="start">500 × 500 mm</text><rect x="400.297" y="576.913" width="157.98" height="157.98" fill="none" stroke="#34735e" stroke-width="1.4" stroke-dasharray="6 4" /><text x="980" y="255" font-size="16" fill="#34735e" text-anchor="start">3 床尾活动</text><text x="980" y="276" font-size="14" fill="#233e38" text-anchor="start">900 × 900 mm</text><rect x="687.47" y="313.613" width="105.32" height="193.087" fill="none" stroke="#905681" stroke-width="1.4" stroke-dasharray="6 4" /><text x="980" y="310" font-size="16" fill="#905681" text-anchor="start">4 飘窗窗帘操作</text><text x="980" y="331" font-size="14" fill="#233e38" text-anchor="start">600 × 1100 mm</text><rect x="312.53" y="172.66" width="157.98" height="263.3" fill="none" stroke="#467896" stroke-width="1.4" stroke-dasharray="6 4" /><text x="980" y="365" font-size="16" fill="#467896" text-anchor="start">5 移门取衣</text><text x="980" y="386" font-size="14" fill="#233e38" text-anchor="start">900 × 1500 mm</text><text x="980" y="430" font-size="14" fill="#233e38" text-anchor="start">B床</text><text x="980" y="450" font-size="13" fill="#233e38" text-anchor="start">1200 × 2000</text><text x="980" y="473" font-size="14" fill="#233e38" text-anchor="start">B衣柜</text><text x="980" y="493" font-size="13" fill="#233e38" text-anchor="start">600 × 1500</text><text x="980" y="516" font-size="14" fill="#233e38" text-anchor="start">儿童书桌</text><text x="980" y="536" font-size="13" fill="#233e38" text-anchor="start">1200 × 600</text><text x="980" y="559" font-size="14" fill="#233e38" text-anchor="start">儿童书椅</text><text x="980" y="579" font-size="13" fill="#233e38" text-anchor="start">500 × 500</text><path d="M278.82797731568996,304.3100189035917 L299.89197947610046,304.3100189035917" stroke="#b36b36" stroke-width="3"/><text x="299.892" y="304.31" font-size="18" fill="#b36b36" text-anchor="middle">→</text><path d="M687.4696192276533,663.2757223872536 L687.4696192276533,642.2117202268431" stroke="#b36b36" stroke-width="3"/><text x="687.47" y="642.212" font-size="18" fill="#b36b36" text-anchor="middle">↑</text><path d="M731.3529570618418,680.4779908182555 L731.3529570618418,698.0313259519309" stroke="#b36b36" stroke-width="3"/><text x="731.353" y="698.031" font-size="18" fill="#b36b36" text-anchor="middle">↓</text><rect x="780.502" y="673.457" width="12.2873" height="43.8833" fill="#90568140" stroke="#905681" stroke-width="1.4" stroke-dasharray="6 4" /><rect x="590.926" y="655.903" width="70.2133" height="61.4367" fill="#90568140" stroke="#905681" stroke-width="1.4" stroke-dasharray="6 4" /><polyline points="270.402,584.637 400.297,584.637 400.297,479.317 400.297,584.637 507.372,584.637" stroke="#467896" stroke-width="3" fill="none"/><polyline points="400.297,572.262 735.566,572.262 735.566,409.103" stroke="#467896" stroke-width="3" fill="none"/><rect x="32" y="831" width="1336" height="144" fill="#eef1e8" stroke="none" stroke-width="1.4" /><text x="48" y="855" font-size="16" fill="#233e38" text-anchor="start">东南南墙1200×600可调桌，书椅面南</text><text x="48" y="884" font-size="16" fill="#233e38" text-anchor="start">书包挂东墙桌上侧；玩具在桌下西段低格</text><text x="48" y="913" font-size="16" fill="#233e38" text-anchor="start">衣柜下部300–900常用衣物；床尾中央活动；窗帘操作与坐人拉椅错时</text><text x="48" y="942" font-size="16" fill="#233e38" text-anchor="start">虚线是使用状态，不能全部同时使用；路线命中及900目标不足见逐室核验表。</text><text x="42" y="1030" font-size="12" fill="#b36b36" text-anchor="start">R10.4；三维模型已同步；本轮未生成渲染图。红色／虚线表示开启或使用范围，不能视为实体。</text></g></svg>