<svg xmlns="http://www.w3.org/2000/svg" viewBox="0 0 1400 1050" role="img"><title>客房 D · 功能与状态尺寸</title><rect width="100%" height="100%" fill="#fbfaf5"/><g font-family="PingFang SC, Microsoft YaHei, sans-serif"><text x="42" y="48" font-size="27" fill="#233e38" text-anchor="start">R10.4  /  客房 D · 功能与状态尺寸</text><text x="42" y="79" font-size="15" fill="#b36b36" text-anchor="start">单位：mm · 概念尺寸，非现场实测／下单尺寸</text><defs><clipPath id="panel_3"><rect x="50" y="120" width="900" height="650" fill="white" stroke="none" stroke-width="1.4" /></clipPath></defs><g clip-path="url(#panel_3)" data-plan="true" data-world="[-200.0, -6462.0, 4376.0, 3544.0]" data-frame="[50, 120, 900, 650]" data-pulled="[]"><rect x="1349.55" y="-2263.39" width="44.0181" height="742.805" fill="#64736d" stroke="none" stroke-width="1.4" data-wall="wall_A_east_0" data-box="6620,6027,240,4050"/><rect x="14.3341" y="-2285.4" width="1379.23" height="44.0181" fill="#64736d" stroke="none" stroke-width="1.4" data-wall="wall_A_north_0" data-box="-660,9957,7520,240"/><rect x="223.42" y="-1564.61" width="775.818" height="22.009" fill="#64736d" stroke="none" stroke-width="1.4" data-wall="wall_A_south1_0" data-box="480,6147,4230,120"/><rect x="1276.19" y="-1564.61" width="73.3634" height="22.009" fill="#64736d" stroke="none" stroke-width="1.4" data-wall="wall_A_south2_0" data-box="6220,6147,400,120"/><rect x="14.3341" y="-2263.39" width="44.0181" height="698.786" fill="#64736d" stroke="none" stroke-width="1.4" data-wall="wall_A_west_0" data-box="-660,6267,240,3810"/><rect x="864.616" y="-1542.6" width="44.0181" height="137.006" fill="#64736d" stroke="none" stroke-width="1.4" data-wall="wall_B_east1_0" data-box="3976,5400,240,747"/><rect x="864.616" y="-1121.31" width="44.0181" height="184.509" fill="#64736d" stroke="none" stroke-width="1.4" data-wall="wall_B_east2_0" data-box="3976,2844,240,1006"/><rect x="230.756" y="-1542.6" width="22.009" height="372.319" fill="#64736d" stroke="none" stroke-width="1.4" data-wall="wall_B_west1_0" data-box="520,4117,120,2030"/><rect x="230.756" y="-1005.21" width="22.009" height="68.4114" fill="#64736d" stroke="none" stroke-width="1.4" data-wall="wall_B_west2_0" data-box="520,2844,120,373"/><rect x="113.375" y="134.673" width="795.26" height="22.009" fill="#64736d" stroke="none" stroke-width="1.4" data-wall="wall_CD_0" data-box="-120,-3118,4336,120"/><rect x="864.616" y="-415.186" width="44.0181" height="100.875" fill="#64736d" stroke="none" stroke-width="1.4" data-wall="wall_C_east1_0" data-box="3976,-550,240,550"/><rect x="864.616" y="-11.6874" width="44.0181" height="146.36" fill="#64736d" stroke="none" stroke-width="1.4" data-wall="wall_C_east2_0" data-box="3976,-2998,240,798"/><rect x="113.375" y="101.659" width="22.009" height="55.0226" fill="#64736d" stroke="none" stroke-width="1.4" data-wall="wall_C_west_end_0" data-box="-120,-3118,120,300"/><rect x="864.616" y="156.682" width="44.0181" height="598.646" fill="#64736d" stroke="none" stroke-width="1.4" data-wall="wall_D_east_0" data-box="3976,-6382,240,3264"/><rect x="135.384" y="733.318" width="205.418" height="22.009" fill="#64736d" stroke="none" stroke-width="1.4" data-wall="wall_D_south1_0" data-box="0,-6382,1120,120"/><rect x="641.591" y="733.318" width="223.025" height="22.009" fill="#64736d" stroke="none" stroke-width="1.4" data-wall="wall_D_south2_0" data-box="2760,-6382,1216,120"/><rect x="113.375" y="321.749" width="22.009" height="433.578" fill="#64736d" stroke="none" stroke-width="1.4" data-wall="wall_D_west2_0" data-box="-120,-6382,120,2364"/><rect x="-78.6541" y="571.552" width="22.009" height="199.915" fill="#64736d" stroke="none" stroke-width="1.4" data-wall="wall_balconyA_east_0" data-box="-1167,-6470,120,1090"/><rect x="-629.797" y="527.534" width="110.045" height="22.009" fill="#64736d" stroke="none" stroke-width="1.4" data-wall="wall_balconyA_head1_0" data-box="-4172,-5260,600,120"/><rect x="-152.935" y="527.534" width="266.309" height="44.0181" fill="#64736d" stroke="none" stroke-width="1.4" data-wall="wall_balconyA_head2_0" data-box="-1572,-5380,1452,240"/><rect x="1069.48" y="-936.8" width="22.009" height="33.0135" fill="#64736d" stroke="none" stroke-width="1.4" data-wall="wall_balconyB_NE_0" data-box="5093,2664,120,180"/><rect x="1069.48" y="-437.195" width="22.009" height="44.0181" fill="#64736d" stroke="none" stroke-width="1.4" data-wall="wall_balconyB_SE_0" data-box="5093,-120,120,240"/><rect x="864.616" y="-914.791" width="22.009" height="270.344" fill="#64736d" stroke="none" stroke-width="1.4" data-wall="wall_balconyB_div1_0" data-box="3976,1250,120,1474"/><rect x="864.616" y="-488.55" width="22.009" height="73.3634" fill="#64736d" stroke="none" stroke-width="1.4" data-wall="wall_balconyB_div2_0" data-box="3976,-0,120,400"/><rect x="428.837" y="-914.791" width="22.009" height="270.344" fill="#64736d" stroke="none" stroke-width="1.4" data-wall="wall_bath_east_0" data-box="1600,1250,120,1474"/><rect x="-29.684" y="-936.8" width="894.3" height="22.009" fill="#64736d" stroke="none" stroke-width="1.4" data-wall="wall_bath_kitchen_north_0" data-box="-900,2724,4876,120"/><rect x="-7.67494" y="-666.456" width="179.74" height="22.009" fill="#64736d" stroke="none" stroke-width="1.4" data-wall="wall_bath_south1_0" data-box="-780,1250,980,120"/><rect x="318.792" y="-666.456" width="110.045" height="22.009" fill="#64736d" stroke="none" stroke-width="1.4" data-wall="wall_bath_south2_0" data-box="1000,1250,600,120"/><rect x="-29.684" y="-914.791" width="22.009" height="270.344" fill="#64736d" stroke="none" stroke-width="1.4" data-wall="wall_bath_west_0" data-box="-900,1250,120,1474"/><rect x="-534.058" y="-753.392" width="44.0181" height="108.945" fill="#64736d" stroke="none" stroke-width="1.4" data-wall="wall_entry_lower_0" data-box="-3650,1250,240,594"/><rect x="-673.815" y="-666.456" width="183.775" height="44.0181" fill="#64736d" stroke="none" stroke-width="1.4" data-wall="wall_entry_step_0" data-box="-4412,1130,1002,240"/><rect x="-534.058" y="-1586.62" width="592.41" height="44.0181" fill="#64736d" stroke="none" stroke-width="1.4" data-wall="wall_family_north_0" data-box="-3650,6147,3230,240"/><rect x="-534.058" y="-1542.6" width="44.0181" height="627.808" fill="#64736d" stroke="none" stroke-width="1.4" data-wall="wall_family_west_0" data-box="-3650,2724,240,3423"/><rect x="-673.815" y="-622.438" width="44.0181" height="1393.91" fill="#64736d" stroke="none" stroke-width="1.4" data-wall="wall_living_west_0" data-box="-4412,-6470,240,7600"/><rect x="370.147" y="-2263.39" width="22.009" height="121.05" fill="#64736d" stroke="none" stroke-width="1.4" data-wall="wall_master_bath_east1_0" data-box="1280,9417,120,660"/><rect x="370.147" y="-2002.95" width="22.009" height="40.3499" fill="#64736d" stroke="none" stroke-width="1.4" data-wall="wall_master_bath_east2_0" data-box="1280,8437,120,220"/><rect x="58.3521" y="-1984.61" width="311.795" height="22.009" fill="#64736d" stroke="none" stroke-width="1.4" data-wall="wall_master_bath_south_0" data-box="-420,8437,1700,120"/><rect x="-490.04" y="-936.8" width="5.50226" height="22.009" fill="#64736d" stroke="none" stroke-width="1.4" data-wall="shoe_wall_west_return" data-box="-3410,2724,30,120"/><rect x="-319.47" y="-936.8" width="14.6727" height="22.009" fill="#64736d" stroke="none" stroke-width="1.4" data-wall="shoe_wall_door_return" data-box="-2480,2724,80,120"/><rect x="999.238" y="-1564.61" width="276.947" height="22.009" fill="#dceaf0" stroke="#467896" stroke-width="1.4" /><rect x="908.634" y="-936.8" width="160.849" height="22.009" fill="#dceaf0" stroke="#467896" stroke-width="1.4" /><rect x="1069.48" y="-903.787" width="22.009" height="466.591" fill="#dceaf0" stroke="#467896" stroke-width="1.4" /><rect x="908.634" y="-415.186" width="160.849" height="22.009" fill="#dceaf0" stroke="#467896" stroke-width="1.4" /><rect x="-629.797" y="749.458" width="551.143" height="22.009" fill="#dceaf0" stroke="#467896" stroke-width="1.4" /><rect x="864.616" y="-1405.59" width="137.556" height="284.283" fill="#dceaf0" stroke="#467896" stroke-width="1.4" /><rect x="864.616" y="-314.312" width="137.556" height="302.624" fill="#dceaf0" stroke="#467896" stroke-width="1.4" /><rect x="340.801" y="733.318" width="300.79" height="128.386" fill="#dceaf0" stroke="#467896" stroke-width="1.4" /><polygon points="314.391,549.91 589.503,549.91 589.503,183.093 314.391,183.093" fill="#e0e9df" stroke="#34735e" stroke-width="1.4" data-object="bedD" data-box="976,-5262,1500,2000"/><text x="451.947" y="366.501" font-size="14" fill="#233e38" text-anchor="middle">D床</text><rect x="341.902" y="205.102" width="96.2895" height="55.0226" fill="#fbfaf5" stroke="#34735e" stroke-width="1.4" /><rect x="462.951" y="205.102" width="96.2895" height="55.0226" fill="#fbfaf5" stroke="#34735e" stroke-width="1.4" /><polygon points="754.571,639.413 864.616,639.413 864.616,199.233 754.571,199.233" fill="#e0e9df" stroke="#34735e" stroke-width="1.4" data-object="wardrobeD" data-box="3376,-5750,600,2400"/><text x="809.594" y="419.323" font-size="14" fill="#233e38" text-anchor="middle">D衣柜</text><polygon points="593.905,134.673 772.729,134.673 772.729,-2.88375 593.905,-2.88375" fill="#e0e9df" stroke="#b36b36" stroke-width="1.4" data-object="fridge" data-box="2500,-2998,975,750"/><text x="683.317" y="65.8945" font-size="14" fill="#233e38" text-anchor="middle">冰箱 975</text><polygon points="483.86,134.673 593.905,134.673 593.905,24.6275 483.86,24.6275" fill="#e0e9df" stroke="#b36b36" stroke-width="1.4" data-object="tower" data-box="1900,-2998,600,600"/><text x="538.883" y="79.6501" font-size="14" fill="#233e38" text-anchor="middle">电器高柜 600</text><polygon points="153.725,134.673 483.86,134.673 483.86,24.6275 153.725,24.6275" fill="#e0e9df" stroke="#b36b36" stroke-width="1.4" data-object="coffee" data-box="100,-2998,1800,600"/><text x="318.792" y="79.6501" font-size="14" fill="#233e38" text-anchor="middle">咖啡柜 1800</text><polygon points="326.129,182.359 399.492,182.359 399.492,160.35 326.129,160.35" fill="#e0e9df" stroke="#34735e" stroke-width="1.4" data-object="D_bedside" data-box="1040,-3258,400,120"/><text x="362.81" y="171.354" font-size="14" fill="#233e38" text-anchor="middle">客房置物</text><rect x="121.17" y="164.935" width="6.4193" height="148.561" fill="#cdbb9e" stroke="#b36b36" stroke-width="1.4" /><rect x="-27.3914" y="307.077" width="148.561" height="6.4193" fill="none" stroke="#b36b36" stroke-width="1.4" stroke-dasharray="6 4" /><polyline points="127.589,164.935 119.805,164.803 112.025,165.078 104.27,165.76 96.561,166.847 88.9197,168.336 81.3668,170.223 73.923,172.502 66.6087,175.168 59.444,178.213 52.4484,181.629 45.6412,185.406 39.041,189.535 32.6659,194.003 26.5334,198.798 20.6603,203.908 15.0626,209.319 9.75584,215.015 4.75442,220.981 0.0720892,227.2 -4.27832,233.656 -8.28489,240.331 -11.9366,247.207 -15.2235,254.264 -18.1366,261.483 -20.6678,268.845 -22.8103,276.329 -24.5581,283.916 -25.9065,291.583 -26.8518,299.31 -27.3914,307.077" fill="none" stroke="#b36b36" stroke-dasharray="3 4"/></g><rect x="589.503" y="199.233" width="165.068" height="440.181" fill="none" stroke="#467896" stroke-width="1.4" stroke-dasharray="6 4" /><text x="980" y="145" font-size="16" fill="#467896" text-anchor="start">1 移门取衣及取行李</text><text x="980" y="166" font-size="14" fill="#233e38" text-anchor="start">900 × 2400 mm</text><text x="980" y="210" font-size="14" fill="#233e38" text-anchor="start">D床</text><text x="980" y="230" font-size="13" fill="#233e38" text-anchor="start">1500 × 2000</text><text x="980" y="253" font-size="14" fill="#233e38" text-anchor="start">D衣柜</text><text x="980" y="273" font-size="13" fill="#233e38" text-anchor="start">600 × 2400</text><text x="980" y="296" font-size="14" fill="#233e38" text-anchor="start">客房置物</text><text x="980" y="316" font-size="13" fill="#233e38" text-anchor="start">400 × 120</text><path d="M789.7855530474039,419.32279909706546 L767.7765237020317,419.32279909706546" stroke="#b36b36" stroke-width="3"/><text x="767.777" y="419.323" font-size="18" fill="#b36b36" text-anchor="middle">←</text><rect x="610.412" y="158.516" width="18.3409" height="7.33634" fill="#90568140" stroke="#905681" stroke-width="1.4" stroke-dasharray="6 4" /><rect x="610.412" y="158.516" width="18.3409" height="7.33634" fill="#90568140" stroke="#905681" stroke-width="1.4" stroke-dasharray="6 4" /><rect x="769.977" y="210.237" width="78.8657" height="100.875" fill="#90568140" stroke="#905681" stroke-width="1.4" stroke-dasharray="6 4" /><rect x="32" y="831" width="1336" height="144" fill="#eef1e8" stroke="none" stroke-width="1.4" /><text x="48" y="855" font-size="16" fill="#233e38" text-anchor="start">床头局部置物、充电及壁灯</text><text x="48" y="884" font-size="16" fill="#233e38" text-anchor="start">行李放衣柜北端下层，取用后归位</text><text x="48" y="913" font-size="16" fill="#233e38" text-anchor="start">衣柜北半挂衣、南半备用床品</text><text x="48" y="942" font-size="16" fill="#233e38" text-anchor="start">虚线是使用状态，不能全部同时使用；路线命中及900目标不足见逐室核验表。</text><text x="42" y="1030" font-size="12" fill="#b36b36" text-anchor="start">R10.4；三维模型已同步；本轮未生成渲染图。红色／虚线表示开启或使用范围，不能视为实体。</text></g></svg>