<svg xmlns="http://www.w3.org/2000/svg" viewBox="0 0 1400 1050" role="img"><title>洗烘阳台 · 功能与状态尺寸</title><rect width="100%" height="100%" fill="#fbfaf5"/><g font-family="PingFang SC, Microsoft YaHei, sans-serif"><text x="42" y="48" font-size="27" fill="#233e38" text-anchor="start">R10.5  /  洗烘阳台 · 功能与状态尺寸</text><text x="42" y="79" font-size="15" fill="#b36b36" text-anchor="start">单位：mm · 概念尺寸，非现场实测／下单尺寸</text><defs><clipPath id="panel_3"><rect x="50" y="120" width="900" height="650" fill="white" stroke="none" stroke-width="1.4" /></clipPath></defs><g clip-path="url(#panel_3)" data-plan="true" data-world="[3896.0, -200.0, 1397.0, 3124.0]" data-frame="[50, 120, 900, 650]" data-pulled="[]"><rect x="921.439" y="-1368.3" width="49.936" height="842.67" fill="#64736d" stroke="none" stroke-width="1.4" data-wall="wall_A_east_0" data-box="6620,6027,240,4050"/><rect x="-593.286" y="-1393.27" width="1564.66" height="49.936" fill="#64736d" stroke="none" stroke-width="1.4" data-wall="wall_A_north_0" data-box="-660,9957,7520,240"/><rect x="-356.09" y="-575.567" width="880.122" height="24.968" fill="#64736d" stroke="none" stroke-width="1.4" data-wall="wall_A_south1_0" data-box="480,6147,4230,120"/><rect x="838.212" y="-575.567" width="83.2266" height="24.968" fill="#64736d" stroke="none" stroke-width="1.4" data-wall="wall_A_south2_0" data-box="6220,6147,400,120"/><rect x="-593.286" y="-1368.3" width="49.936" height="792.733" fill="#64736d" stroke="none" stroke-width="1.4" data-wall="wall_A_west_0" data-box="-660,6267,240,3810"/><rect x="371.311" y="-550.599" width="49.936" height="155.426" fill="#64736d" stroke="none" stroke-width="1.4" data-wall="wall_B_east1_0" data-box="3976,5400,240,747"/><rect x="371.311" y="-72.6697" width="49.936" height="209.315" fill="#64736d" stroke="none" stroke-width="1.4" data-wall="wall_B_east2_0" data-box="3976,2844,240,1006"/><rect x="-347.767" y="-550.599" width="24.968" height="422.375" fill="#64736d" stroke="none" stroke-width="1.4" data-wall="wall_B_west1_0" data-box="520,4117,120,2030"/><rect x="-347.767" y="59.0365" width="24.968" height="77.6088" fill="#64736d" stroke="none" stroke-width="1.4" data-wall="wall_B_west2_0" data-box="520,2844,120,373"/><rect x="-480.93" y="1352.17" width="902.177" height="24.968" fill="#64736d" stroke="none" stroke-width="1.4" data-wall="wall_CD_0" data-box="-120,-3118,4336,120"/><rect x="371.311" y="728.387" width="49.936" height="114.437" fill="#64736d" stroke="none" stroke-width="1.4" data-wall="wall_C_east1_0" data-box="3976,-550,240,550"/><rect x="371.311" y="1186.13" width="49.936" height="166.037" fill="#64736d" stroke="none" stroke-width="1.4" data-wall="wall_C_east2_0" data-box="3976,-2998,240,798"/><rect x="-480.93" y="1314.72" width="24.968" height="62.42" fill="#64736d" stroke="none" stroke-width="1.4" data-wall="wall_C_west_end_0" data-box="-120,-3118,120,300"/><rect x="371.311" y="1377.14" width="49.936" height="679.129" fill="#64736d" stroke="none" stroke-width="1.4" data-wall="wall_D_east_0" data-box="3976,-6382,240,3264"/><rect x="-455.962" y="2031.3" width="233.035" height="24.968" fill="#64736d" stroke="none" stroke-width="1.4" data-wall="wall_D_south1_0" data-box="0,-6382,1120,120"/><rect x="118.302" y="2031.3" width="253.009" height="24.968" fill="#64736d" stroke="none" stroke-width="1.4" data-wall="wall_D_south2_0" data-box="2760,-6382,1216,120"/><rect x="-480.93" y="1564.4" width="24.968" height="491.869" fill="#64736d" stroke="none" stroke-width="1.4" data-wall="wall_D_west2_0" data-box="-120,-6382,120,2364"/><rect x="-698.776" y="1847.78" width="24.968" height="226.793" fill="#64736d" stroke="none" stroke-width="1.4" data-wall="wall_balconyA_east_0" data-box="-1167,-6470,120,1090"/><rect x="-1324.02" y="1797.85" width="124.84" height="24.968" fill="#64736d" stroke="none" stroke-width="1.4" data-wall="wall_balconyA_head1_0" data-box="-4172,-5260,600,120"/><rect x="-783.043" y="1797.85" width="302.113" height="49.936" fill="#64736d" stroke="none" stroke-width="1.4" data-wall="wall_balconyA_head2_0" data-box="-1572,-5380,1452,240"/><rect x="603.721" y="136.645" width="24.968" height="37.452" fill="#64736d" stroke="none" stroke-width="1.4" data-wall="wall_balconyB_NE_0" data-box="5093,2664,120,180"/><rect x="603.721" y="703.419" width="24.968" height="49.936" fill="#64736d" stroke="none" stroke-width="1.4" data-wall="wall_balconyB_SE_0" data-box="5093,-120,120,240"/><rect x="371.311" y="161.613" width="24.968" height="306.69" fill="#64736d" stroke="none" stroke-width="1.4" data-wall="wall_balconyB_div1_0" data-box="3976,1250,120,1474"/><rect x="371.311" y="645.16" width="24.968" height="83.2266" fill="#64736d" stroke="none" stroke-width="1.4" data-wall="wall_balconyB_div2_0" data-box="3976,-0,120,400"/><rect x="-123.055" y="161.613" width="24.968" height="306.69" fill="#64736d" stroke="none" stroke-width="1.4" data-wall="wall_bath_east_0" data-box="1600,1250,120,1474"/><rect x="-643.222" y="136.645" width="1014.53" height="24.968" fill="#64736d" stroke="none" stroke-width="1.4" data-wall="wall_bath_kitchen_north_0" data-box="-900,2724,4876,120"/><rect x="-618.254" y="443.335" width="203.905" height="24.968" fill="#64736d" stroke="none" stroke-width="1.4" data-wall="wall_bath_south1_0" data-box="-780,1250,980,120"/><rect x="-247.895" y="443.335" width="124.84" height="24.968" fill="#64736d" stroke="none" stroke-width="1.4" data-wall="wall_bath_south2_0" data-box="1000,1250,600,120"/><rect x="-643.222" y="161.613" width="24.968" height="306.69" fill="#64736d" stroke="none" stroke-width="1.4" data-wall="wall_bath_west_0" data-box="-900,1250,120,1474"/><rect x="-1215.4" y="344.712" width="49.936" height="123.592" fill="#64736d" stroke="none" stroke-width="1.4" data-wall="wall_entry_lower_0" data-box="-3650,1250,240,594"/><rect x="-1373.95" y="443.335" width="208.483" height="49.936" fill="#64736d" stroke="none" stroke-width="1.4" data-wall="wall_entry_step_0" data-box="-4412,1130,1002,240"/><rect x="-1215.4" y="-600.535" width="672.055" height="49.936" fill="#64736d" stroke="none" stroke-width="1.4" data-wall="wall_family_north_0" data-box="-3650,6147,3230,240"/><rect x="-1215.4" y="-550.599" width="49.936" height="712.212" fill="#64736d" stroke="none" stroke-width="1.4" data-wall="wall_family_west_0" data-box="-3650,2724,240,3423"/><rect x="-1373.95" y="493.271" width="49.936" height="1581.31" fill="#64736d" stroke="none" stroke-width="1.4" data-wall="wall_living_west_0" data-box="-4412,-6470,240,7600"/><rect x="-189.637" y="-1368.3" width="24.968" height="137.324" fill="#64736d" stroke="none" stroke-width="1.4" data-wall="wall_master_bath_east1_0" data-box="1280,9417,120,660"/><rect x="-189.637" y="-1072.85" width="24.968" height="45.7746" fill="#64736d" stroke="none" stroke-width="1.4" data-wall="wall_master_bath_east2_0" data-box="1280,8437,120,220"/><rect x="-543.35" y="-1052.04" width="353.713" height="24.968" fill="#64736d" stroke="none" stroke-width="1.4" data-wall="wall_master_bath_south_0" data-box="-420,8437,1700,120"/><rect x="-1165.47" y="136.645" width="6.242" height="24.968" fill="#64736d" stroke="none" stroke-width="1.4" data-wall="shoe_wall_west_return" data-box="-3410,2724,30,120"/><rect x="-971.967" y="136.645" width="16.6453" height="24.968" fill="#64736d" stroke="none" stroke-width="1.4" data-wall="shoe_wall_door_return" data-box="-2480,2724,80,120"/><rect x="524.032" y="-575.567" width="314.181" height="24.968" fill="#dceaf0" stroke="#467896" stroke-width="1.4" /><rect x="421.247" y="136.645" width="182.474" height="24.968" fill="#dceaf0" stroke="#467896" stroke-width="1.4" /><rect x="603.721" y="174.097" width="24.968" height="529.321" fill="#dceaf0" stroke="#467896" stroke-width="1.4" /><rect x="421.247" y="728.387" width="182.474" height="24.968" fill="#dceaf0" stroke="#467896" stroke-width="1.4" /><rect x="-1324.02" y="2049.61" width="625.24" height="24.968" fill="#dceaf0" stroke="#467896" stroke-width="1.4" /><rect x="371.311" y="-395.173" width="156.05" height="322.503" fill="#dceaf0" stroke="#467896" stroke-width="1.4" /><rect x="371.311" y="842.823" width="156.05" height="343.31" fill="#dceaf0" stroke="#467896" stroke-width="1.4" /><rect x="-222.927" y="2031.3" width="341.229" height="145.647" fill="#dceaf0" stroke="#467896" stroke-width="1.4" /><polygon points="209.851,286.453 371.311,286.453 371.311,161.613 209.851,161.613" fill="#e0e9df" stroke="#34735e" stroke-width="1.4" data-object="sink" data-box="3200,2124,776,600"/><polygon points="281.218,294.984 281.329,295.4 281.635,295.705 282.05,295.816 282.883,295.816 283.298,295.705 283.604,295.4 283.715,294.984 283.715,291.447 283.604,291.031 283.298,290.726 282.883,290.615 282.05,290.615 281.635,290.726 281.329,291.031 281.218,291.447" fill="none" stroke="#758c83" stroke-width="0.7" data-component="sink_pull0"/><polygon points="361.948,294.984 362.059,295.4 362.365,295.705 362.78,295.816 363.612,295.816 364.028,295.705 364.334,295.4 364.445,294.984 364.445,291.447 364.334,291.031 364.028,290.726 363.612,290.615 362.78,290.615 362.365,290.726 362.059,291.031 361.948,291.447" fill="none" stroke="#758c83" stroke-width="0.7" data-component="sink_pull1"/><polygon points="242.726,257.532 242.865,258.052 243.246,258.433 243.766,258.572 334.067,258.572 334.586,258.433 334.968,258.052 335.107,257.532 335.107,192.199 334.968,191.68 334.586,191.298 334.067,191.159 243.766,191.159 243.246,191.298 242.865,191.68 242.726,192.199" fill="none" stroke="#758c83" stroke-width="0.7" data-component="kitchen_sink_bowl_bottom"/><polygon points="211.1,289.782 211.211,290.198 211.516,290.503 211.932,290.615 288.5,290.615 288.916,290.503 289.221,290.198 289.333,289.782 289.333,287.286 289.221,286.87 288.916,286.564 288.5,286.453 211.932,286.453 211.516,286.564 211.211,286.87 211.1,287.286" fill="none" stroke="#758c83" stroke-width="0.7" data-component="sink_front0"/><polygon points="291.829,289.782 291.94,290.198 292.246,290.503 292.662,290.615 369.23,290.615 369.646,290.503 369.951,290.198 370.062,289.782 370.062,287.286 369.951,286.87 369.646,286.564 369.23,286.453 292.662,286.453 292.246,286.564 291.94,286.87 291.829,287.286" fill="none" stroke="#758c83" stroke-width="0.7" data-component="sink_front1"/><polygon points="242.726,257.74 242.837,258.156 243.142,258.461 243.558,258.572 334.275,258.572 334.69,258.461 334.996,258.156 335.107,257.74 334.996,257.324 334.69,257.019 334.275,256.908 243.558,256.908 243.142,257.019 242.837,257.324" fill="none" stroke="#758c83" stroke-width="0.7" data-component="kitchen_sink_bowl_wall0"/><polygon points="242.726,191.991 242.837,192.407 243.142,192.712 243.558,192.823 334.275,192.823 334.69,192.712 334.996,192.407 335.107,191.991 334.996,191.575 334.69,191.27 334.275,191.159 243.558,191.159 243.142,191.27 242.837,191.575" fill="none" stroke="#758c83" stroke-width="0.7" data-component="kitchen_sink_bowl_wall1"/><polygon points="242.726,257.74 242.837,258.156 243.142,258.461 243.558,258.572 243.973,258.461 244.279,258.156 244.39,257.74 244.39,191.991 244.279,191.575 243.973,191.27 243.558,191.159 243.142,191.27 242.837,191.575 242.726,191.991" fill="none" stroke="#758c83" stroke-width="0.7" data-component="kitchen_sink_bowl_wall2"/><polygon points="333.443,257.74 333.554,258.156 333.859,258.461 334.275,258.572 334.691,258.461 334.996,258.156 335.107,257.74 335.107,191.991 334.996,191.575 334.691,191.27 334.275,191.159 333.859,191.27 333.554,191.575 333.443,191.991" fill="none" stroke="#758c83" stroke-width="0.7" data-component="kitchen_sink_bowl_wall3"/><polygon points="238.98,261.069 239.147,261.693 239.606,262.151 240.229,262.318 337.604,262.318 338.227,262.151 338.686,261.693 338.852,261.069 338.852,259.821 338.686,259.197 338.227,258.739 337.604,258.572 240.229,258.572 239.606,258.739 239.147,259.197 238.98,259.821" fill="none" stroke="#758c83" stroke-width="0.7" data-component="kitchen_sink_rim"/><polygon points="238.98,189.91 239.147,190.534 239.606,190.992 240.229,191.159 337.604,191.159 338.227,190.992 338.686,190.534 338.852,189.91 338.852,188.662 338.686,188.039 338.227,187.58 337.604,187.414 240.229,187.414 239.606,187.58 239.147,188.039 238.98,188.662" fill="none" stroke="#758c83" stroke-width="0.7" data-component="kitchen_sink_rim.001"/><polygon points="238.98,261.069 239.147,261.693 239.606,262.151 240.229,262.318 241.477,262.318 242.101,262.151 242.559,261.693 242.726,261.069 242.726,188.662 242.559,188.039 242.101,187.58 241.477,187.414 240.229,187.414 239.606,187.58 239.147,188.039 238.98,188.662" fill="none" stroke="#758c83" stroke-width="0.7" data-component="kitchen_sink_rim.002"/><polygon points="335.107,261.069 335.274,261.693 335.732,262.151 336.356,262.318 337.604,262.318 338.227,262.151 338.686,261.693 338.852,261.069 338.852,188.662 338.686,188.039 338.227,187.58 337.604,187.414 336.356,187.414 335.732,187.58 335.274,188.039 335.107,188.662" fill="none" stroke="#758c83" stroke-width="0.7" data-component="kitchen_sink_rim.003"/><text x="290.581" y="224.033" font-size="14" fill="#233e38" text-anchor="middle">主槽柜</text><polygon points="421.247,345.544 577.297,345.544 577.297,210.301 421.247,210.301" fill="#e0e9df" stroke="#34735e" stroke-width="1.4" data-object="laundry" data-box="4216,1840,750,650"/><polygon points="449.336,351.786 549.208,351.786 549.208,343.464 449.336,343.464" fill="none" stroke="#758c83" stroke-width="0.7" data-component="laundry_port0"/><polygon points="449.336,351.786 549.208,351.786 549.208,343.464 449.336,343.464" fill="none" stroke="#758c83" stroke-width="0.7" data-component="laundry_port1"/><text x="499.272" y="277.923" font-size="14" fill="#233e38" text-anchor="middle">洗烘</text><polygon points="121.631,136.645 371.311,136.645 371.311,11.8054 121.631,11.8054" fill="#e7dfd2" stroke="#34735e" stroke-width="1.4" data-object="child_desk" data-box="2776,2844,1200,600"/><text x="246.471" y="74.2254" font-size="14" fill="#233e38" text-anchor="middle">儿童书桌</text><rect x="380.154" y="477.666" width="7.28233" height="158.131" fill="#cdbb9e" stroke="#b36b36" stroke-width="1.4" /></g><text x="980" y="155" font-size="14" fill="#233e38" text-anchor="start">洗烘</text><text x="980" y="175" font-size="13" fill="#233e38" text-anchor="start">750 × 650</text><path d="M499.2717669654289,302.2663252240717 L499.2717669654289,329.31498079385403" stroke="#b36b36" stroke-width="3"/><text x="499.272" y="329.315" font-size="18" fill="#b36b36" text-anchor="middle">↓</text><rect x="421.247" y="168.688" width="145.647" height="41.6133" fill="#90568140" stroke="#905681" stroke-width="1.4" stroke-dasharray="6 4" /><rect x="32" y="831" width="1336" height="144" fill="#eef1e8" stroke="none" stroke-width="1.4" /><text x="48" y="855" font-size="16" fill="#233e38" text-anchor="start">端部叠放洗烘；洗涤剂入上部壁柜</text><text x="48" y="884" font-size="16" fill="#233e38" text-anchor="start">脏衣篮送洗即装机，避免长期占设备前</text><text x="48" y="913" font-size="16" fill="#233e38" text-anchor="start">少量挂晾与折叠整理台展开单列；检修前收起</text><text x="48" y="942" font-size="16" fill="#233e38" text-anchor="start">本图为正常布置；每个使用包络另出单状态图，路线与开门条件见专项报告。</text><text x="42" y="1030" font-size="12" fill="#b36b36" text-anchor="start">R10.5；三维模型已同步；本轮未生成渲染图。红色／虚线表示开启或使用范围，不能视为实体。</text></g></svg>